<svg version="1.1" xmlns="http://www.w3.org/2000/svg" viewBox="-654.8487212440236 -1741.9246330156677 3511.89840955717 2772.4202556068785"><desc>Created with Snap</desc><defs></defs><g><rect x="-654.8487212440236" y="-1741.9246330156677" width="3511.89840955717" height="2772.4202556068785" fill="#000000" style=""></rect><g transform="matrix(7.2843,0,0,7.2843,-355.7583,-1812.5735)">
<g id="gSkv16gs2v35y">
	<g>
		<path d="M201.21243,348.1283c-10.49316,0-20.94092-0.78418-31.23291-2.37207
			c-45.83106-7.06934-85.31641-28.95801-114.188-63.30078l0,0c-19.96777-23.75195-36.14941-53.38672-45.56494-83.44531
			c-9.9082-31.6333-11.77832-61.13428-5.4082-85.31397c6.92285-26.27734,23.61719-45.02197,48.27783-54.20703
			c57.13867-21.28027,86.83985,6.06152,115.56251,32.50439c6.1084,5.62354,12.4248,11.43799,18.95068,16.75293
			c27.20117,22.15284,50.9082,14.73486,78.36035,6.14551c17.17383-5.37305,34.92383-10.93262,55.42676-9.97949
			c54.07617,2.51025,71.06934,29.24317,75.80273,51.22706c5.5791,25.91162-2.82129,60.30322-23.04785,94.35596
			c-19.3125,32.51367-46.77734,60.03027-73.4668,73.60645C269.6055,339.90857,235.17679,348.1283,201.21243,348.1283z
			 M59.61868,279.23865c28.08057,33.40137,66.50635,54.69434,111.12305,61.57617
			c42.57764,6.56641,87.92139-0.9502,127.67529-21.16992c25.88184-13.16406,52.58594-39.96875,71.43555-71.70312
			c19.58984-32.98047,27.77539-66.05762,22.45898-90.74951c-2.95117-13.70654-9.9541-24.65137-20.81445-32.53028
			c-12.13281-8.80371-29.06738-13.76758-50.33301-14.75439c-19.60645-0.91602-36.94141,4.51221-53.70215,9.75635
			c-27.62988,8.64503-53.72656,16.80714-83.00977-7.04053c-6.64355-5.41064-13.0166-11.27734-19.18018-16.95166
			c-28.88477-26.59131-56.16749-51.70752-110.43067-31.49707c-23.40088,8.71582-38.604,25.80566-45.1875,50.79541
			c-6.13037,23.26807-4.28223,51.81153,5.34424,82.54591C24.22024,226.95837,40.06692,255.98083,59.61868,279.23865z" fill="#ffffff" style=""></path>
	</g>
</g>


<desc>Created with Snap</desc><defs></defs></g><g><g transform="matrix(1.024,0,0,-1.024,0,0)"><path d="M351 708Q384 708 417 702Q451 697 478 685Q505 674 522 657Q540 641 540 619Q540 596 528 584Q516 572 498 572Q481 572 468 577Q455 583 438 590Q422 597 399 602Q376 608 338 608Q300 608 265 588Q231 569 205 534Q180 500 165 453Q150 406 150 351Q150 283 167 234Q185 185 213 153Q241 122 276 106Q312 91 348 91Q391 91 420 100Q449 109 469 120Q490 131 505 140Q520 149 534 149Q551 149 561 139Q571 130 571 106Q571 86 555 65Q540 45 510 28Q481 12 440 1Q399 -9 348 -9Q292 -9 236 13Q181 35 137 78Q94 122 67 187Q40 253 40 340Q40 427 64 495Q89 563 131 610Q174 658 230 683Q287 708 351 708ZM1070 -4Q1054 -4 1044 1Q1035 7 1030 16Q1025 25 1023 37Q1021 50 1020 64Q995 33 955 12Q916 -9 855 -9Q816 -9 775 2Q735 14 702 42Q669 71 648 119Q627 167 627 240Q627 297 641 347Q655 397 683 434Q712 472 755 494Q798 516 856 516Q907 516 947 497Q987 479 1019 437Q1019 449 1020 461Q1021 474 1025 484Q1030 495 1040 501Q1050 508 1067 508Q1082 508 1095 496Q1108 484 1110 444Q1113 391 1114 349Q1116 307 1116 262Q1116 207 1115 161Q1114 115 1110 63Q1108 40 1104 26Q1101 13 1096 6Q1091 0 1084 -2Q1077 -4 1070 -4ZM1016 250Q1016 302 1000 335Q985 368 961 386Q938 405 911 412Q884 419 861 419Q825 419 799 406Q774 393 758 370Q742 348 734 317Q727 287 727 251Q727 163 765 121Q804 79 870 79Q909 79 936 92Q964 106 981 129Q999 152 1007 183Q1016 215 1016 250ZM1238 61Q1234 96 1233 146Q1232 196 1232 267Q1232 337 1232 380Q1233 423 1238 456Q1243 497 1253 509Q1264 521 1281 521Q1293 521 1302 519Q1312 517 1319 510Q1327 504 1331 492Q1335 480 1335 459Q1335 455 1336 451Q1336 447 1336 442Q1337 438 1337 432Q1364 466 1398 490Q1433 514 1477 514Q1536 514 1536 465Q1536 447 1528 435Q1521 423 1507 415Q1494 408 1476 404Q1459 400 1438 396Q1406 390 1378 373Q1350 357 1340 332Q1340 313 1340 304Q1341 295 1341 289Q1342 283 1342 276Q1342 269 1342 254Q1342 203 1340 158Q1338 114 1336 62Q1335 38 1330 25Q1326 12 1319 5Q1313 -2 1305 -4Q1297 -5 1289 -5Q1261 -5 1251 7Q1242 20 1238 61ZM1992 32L1843 263L1694 32Q1680 10 1663 -2Q1647 -13 1626 -13Q1600 -13 1589 -1Q1579 12 1579 31Q1579 42 1583 54Q1588 66 1596 77L1782 343L1596 609Q1588 620 1583 632Q1579 644 1579 655Q1579 674 1589 686Q1600 699 1626 699Q1647 699 1663 687Q1680 676 1694 654L1843 423L1992 654Q2006 676 2022 687Q2039 699 2060 699Q2086 699 2096 686Q2107 674 2107 655Q2107 644 2102 632Q2098 620 2090 609L1904 343L2090 77Q2098 66 2102 54Q2107 42 2107 31Q2107 12 2096 -1Q2086 -13 2060 -13Q2039 -13 2022 -2Q2006 10 1992 32Z" fill="#ffffff" style=""></path></g></g></g></svg>